# xmcd
#
# Track frame offsets:
#	150
#	12687
#	23520
#	35742
#	47455
#	59925
#	70727
#	83777
#	95677
#	107522
#
# Disc length: 1629 seconds
#
# Revision: 2
# Processed by: cddbd v1.5.2PL0 Copyright (c) Steve Scherf et al.
# Submitted via: audiograbber 1.83.01
#
DISCID=82065b0a
DTITLE=Gene Autry - Greatest Hits
DYEAR=1992
DGENRE=Country
TTITLE0=Back In The Saddle Again
TTITLE1=You Are My Sunshine
TTITLE2=Have I Told You Lately That I Love You
TTITLE3=That Silver-Haired Daddy Of Mine
TTITLE4=Goodbye, Little Darlin' Goodbye
TTITLE5=I'm thinking Tonight Of My Blue Eyes
TTITLE6=South Of The Border (Down Mexico Way)
TTITLE7=Blueberry Hill
TTITLE8=Someday You'll Want Me To Want You
TTITLE9=(Ghost) Riders In The Sky
EXTD=
EXTT0=
EXTT1=
EXTT2=
EXTT3=
EXTT4=
EXTT5=
EXTT6=
EXTT7=
EXTT8=
EXTT9=
PLAYORDER=
